<svg width="40" height="40" viewBox="0 0 40 40" fill="none" xmlns="http://www.w3.org/2000/svg">
<rect width="40" height="40" rx="20" fill="#F8F9FA"/>
<path d="M14.684 27.168C14.4413 27.168 14.2267 27.0933 14.04 26.944C13.8533 26.7947 13.7507 26.5987 13.732 26.356C13.732 26.0947 13.8533 25.824 14.096 25.544L18.996 19.384V20.56L14.404 14.82C14.1613 14.5213 14.04 14.2507 14.04 14.008C14.0587 13.7653 14.1613 13.5693 14.348 13.42C14.5347 13.2707 14.7493 13.196 14.992 13.196C15.272 13.196 15.5053 13.252 15.692 13.364C15.8973 13.4573 16.084 13.616 16.252 13.84L20.256 18.908H19.472L23.504 13.84C23.672 13.616 23.8493 13.4573 24.036 13.364C24.2227 13.252 24.456 13.196 24.736 13.196C24.9973 13.196 25.212 13.2707 25.38 13.42C25.5667 13.5693 25.66 13.7747 25.66 14.036C25.6787 14.2787 25.5667 14.5493 25.324 14.848L20.76 20.504V19.468L25.66 25.544C25.884 25.824 25.9867 26.0947 25.968 26.356C25.968 26.5987 25.8747 26.7947 25.688 26.944C25.5013 27.0933 25.2773 27.168 25.016 27.168C24.7547 27.168 24.5213 27.112 24.316 27C24.1293 26.9067 23.9427 26.748 23.756 26.524L19.444 21.092H20.256L15.944 26.524C15.776 26.7293 15.5893 26.888 15.384 27C15.1973 27.112 14.964 27.168 14.684 27.168Z" fill="#868E96"/>
</svg>
